<svg width="48" height="48" viewBox="0 0 48 48" fill="none" xmlns="http://www.w3.org/2000/svg">
  <!-- Heart shape for donation/giving -->
  <path d="M24 40 C18 36 8 28 8 18 C8 12 12 8 16 8 C20 8 22 10 24 14 C26 10 28 8 32 8 C36 8 40 12 40 18 C40 28 30 36 24 40 Z" fill="#0EA5E9"/>
  <!-- Inner highlight -->
  <path d="M24 14 C22 11 20 10 18 10 C15 10 12 13 12 18 C12 24 18 30 24 36" stroke="#1E3A8A" stroke-width="2" stroke-linecap="round" opacity="0.3"/>
  <!-- Sparkle effect -->
  <circle cx="16" cy="14" r="1.5" fill="#1E3A8A"/>
  <circle cx="32" cy="14" r="1.5" fill="#1E3A8A"/>
</svg>
